<?xml version="1.0" standalone="no"?>
<svg viewBox="-350 -150 1500 1500" xmlns="http://www.w3.org/2000/svg" style="width: 390px; height: 390px; justify-content: center; align-self: center; transform: scale(1, 1);"><rect x="-350" y="-150" width="100%" height="100%" fill="#cccccc" rx="30"></rect><g transform="rotate(360 421.69166374206543 616.6687850952148)"><g transform="translate(0 459)"><path d="M494.93 22.0917C492.662 14.1097 463.302 1.6206 434.17 0.182979C398.421 -1.58116 361.568 9.68675 357.807 22.0917C350.98 44.6057 347.993 73.7643 331.537 90.7514C315.41 107.399 287.155 107.732 239.88 118.059L236.961 118.704C204.271 126.014 185.698 200.87 181.244 343.271C530.208 348.677 704.69 342.54 704.69 324.861C704.69 298.341 651.149 184.529 634.846 156.609C618.543 128.689 561.521 139.348 534.812 127.657C508.102 115.966 499.98 39.8687 494.93 22.0917ZM726.472 446.767L10 389.888L0 567.066L9 748.678L771.947 747.349L770.896 743.634C753.91 683.298 745.417 639.296 745.417 611.63L745.415 610.775C745.292 582.872 739.228 529.826 727.222 451.636L726.472 446.767Z" transform="translate(37.99993 -39.09181)" fill="#FFFFFF" fill-rule="evenodd" stroke="none"></path><path d="M369.237 0.206767C369.057 -0.153233 368.587 0.00676706 368.467 0.306767C365.487 7.82677 363.807 15.7368 361.007 23.3368C358.197 30.9568 354.527 38.2168 350.386 45.1868C342.727 58.0868 331.707 70.3668 318.147 77.2568C305.136 81.3568 315.176 102.817 326.447 94.8568C328.386 93.4868 330.297 92.0868 332.157 90.6668C345.667 80.3368 357.067 68.3968 364.636 52.6568C371.867 37.6068 376.886 15.9868 369.237 0.206767ZM509.397 22.5468C509.278 22.4868 509.167 22.5125 509.057 22.5968C506.975 24.2301 507.012 26.7607 506.895 29.2372L506.743 31.9704C506.572 35.2759 506.482 38.5813 506.687 41.8868C507.217 50.2468 508.488 58.7968 510.647 66.8968C512.787 74.9168 515.497 82.6868 518.727 90.3368L518.887 90.7176C522.192 98.6131 525.486 108.056 534.127 111.137C535.967 111.797 537.907 111.697 539.697 111.057C532.137 143.647 504.787 170.717 472.767 180.717C429.227 194.327 378.117 181.577 343.367 152.757C333.887 144.897 326.097 135.577 320.147 124.797C314.597 114.727 309.297 104.737 300.907 96.9568C302.317 94.2268 302.327 90.8468 299.587 88.0468C298.757 87.1968 297.867 86.4068 296.927 85.6668C296.947 85.6568 296.977 85.6468 296.997 85.6468C297.347 85.5668 297.357 84.9968 296.997 84.9268L295.528 84.6368L295.517 84.6368L295.205 84.4253C289.471 80.5916 282.439 79.1203 276.517 82.6168C269.217 82.8268 261.967 83.8068 254.787 85.0668C240.287 87.6068 226.447 92.3168 213.067 98.4068C185.927 110.737 161.367 128.057 138.957 147.587C96.7066 184.397 62.1566 230.347 38.1666 280.957C31.3466 295.357 25.3266 310.137 20.1366 325.197C14.9666 340.177 9.16662 356.317 7.89662 372.187C7.50662 377.017 10.6566 379.677 14.3566 380.177C15.4312 381.759 16.9068 383.227 18.2684 384.495L18.9966 385.167C16.5466 393.397 15.3866 402.347 13.8766 410.577L13.2318 414.166C11.5507 423.741 10.1611 433.359 8.67662 442.977L8.29791 445.454C5.03707 466.93 2.34292 488.552 1.20662 510.257C-1.18338 555.577 -0.000624475 600.957 4.55662 646.107C5.87662 659.197 7.40662 672.267 9.31662 685.287L9.5119 686.646C11.235 698.901 12.0677 711.758 15.3366 723.677C18.0666 733.617 34.6866 732.037 33.8466 721.167C32.9666 709.897 30.0966 698.777 28.5066 687.587C26.9666 676.697 25.7166 665.737 24.5366 654.807C22.1266 632.587 20.4566 610.277 19.2866 587.967C16.9266 543.397 17.1366 498.607 18.3566 454.007C18.6316 443.782 19.24 433.598 19.9154 423.405L20.3266 417.287C20.7566 410.857 21.2776 404.447 21.7166 398.017C21.9366 394.767 22.3066 391.497 22.5466 388.217C26.5966 391.337 31.2066 393.717 35.8266 395.827C47.6288 401.203 60.2759 405.036 72.7512 408.631L75.6266 409.457C89.1466 413.327 102.757 416.827 116.517 419.787C123.387 421.257 130.278 422.647 137.187 423.937C141.447 424.727 146.717 426.367 151.657 426.837L151.687 432.617L151.714 435.722C151.778 440.897 151.932 446.071 152.097 451.243L152.297 457.447C152.317 458.102 152.322 458.799 152.32 459.531L152.307 461.817C151.507 468.247 150.767 474.687 150.057 481.137C147.797 501.807 145.887 522.477 145.267 543.267C144.047 584.057 145.017 624.807 147.677 665.517C148.427 677.007 149.437 688.477 150.587 699.947L150.952 703.633C151.991 713.868 153.525 725.552 159.147 733.927C161.607 737.587 166.307 736.847 168.147 733.267C174.056 731.913 180.416 732.256 186.533 732.585C187.316 732.628 188.095 732.67 188.869 732.708L190.377 732.777C198.917 733.127 207.447 733.457 215.997 733.667C233.647 734.097 251.278 734.157 268.927 734.157C292.663 734.164 316.409 733.835 340.151 733.507C351.697 733.347 363.243 733.188 374.787 733.067L398.31 732.797C461.039 732.038 523.768 730.971 586.497 730.047C606.477 729.757 626.447 729.547 646.417 729.347L690.357 728.907C693.597 728.877 696.238 728.477 698.647 727.447C698.827 727.817 699.017 728.177 699.217 728.527C701.567 732.707 707.287 734.107 711.377 731.717C713.607 730.407 714.887 728.507 715.367 726.387C715.397 726.387 715.427 726.397 715.457 726.407C716.601 720.547 715.311 714.417 714.063 708.491C713.752 707.015 713.444 705.551 713.177 704.107C711.877 697.027 710.857 689.927 709.877 682.787C707.937 668.707 706.177 654.607 704.537 640.477C701.207 611.877 697.997 583.277 695.577 554.567C693.167 526.007 691.147 497.417 689.397 468.807C695.077 468.787 700.857 468.237 706.537 467.327C709.649 467.425 712.715 466.526 715.727 465.641C716.034 465.551 716.339 465.462 716.644 465.373L717.687 465.077L718.677 464.807L720.082 464.446C722.417 463.835 724.713 463.178 726.947 462.487C727.057 462.457 727.157 462.417 727.267 462.377C730.757 461.367 734.238 460.327 737.707 459.267L738.072 459.156L738.437 459.037C735.767 491.107 737.067 523.177 739.247 555.317L739.372 557.172C741.779 593.037 743.639 629.27 752.407 664.267C754.857 674.027 757.667 683.667 760.807 693.227L761.451 695.213C762.719 699.189 763.867 703.185 765.007 707.197C765.707 709.697 766.407 712.197 767.167 714.677L767.477 715.716C767.582 716.064 767.692 716.412 767.817 716.747C768.137 717.617 768.497 718.467 768.887 719.297C769.017 720.297 769.337 721.287 769.867 722.197C772.467 726.647 778.637 727.627 782.947 725.257C788.317 722.307 790.337 716.037 788.967 710.297C787.797 705.417 785.637 700.647 783.967 695.917C782.028 690.417 780.587 684.747 779.007 679.127L778.392 676.917C775.737 667.34 773.224 657.737 771.238 647.997C762.587 605.557 761.897 561.797 756.407 518.907C753.747 498.107 750.047 477.367 744.757 457.057C755.657 453.607 766.467 449.877 777.197 445.917C782.957 443.787 787.517 437.907 785.427 431.437C775.887 402.017 765.947 372.707 756.427 343.267C747.417 315.427 738.697 287.467 729.227 259.777C712.077 209.597 686 162.428 647.367 124.277C626.036 103.212 548.007 84.4568 544.467 88.3868C543.187 89.0368 542.067 89.9968 541.207 91.4168C540.967 91.8068 541.447 92.3068 541.847 92.0568C542.037 91.9368 542.238 91.8268 542.447 91.7268C542.247 92.2868 542.077 92.8868 541.957 93.5168C540.377 91.5368 539.257 88.6368 538.057 86.5268C536.317 83.4868 534.607 80.4268 533.017 77.3068C529.717 70.8568 526.837 64.2968 524.057 57.6168C521.347 51.1268 519.028 44.5368 516.597 37.9368C515.377 34.6468 514.057 31.4068 512.917 28.0868C512.137 25.8168 511.667 23.6368 509.397 22.5468Z" transform="translate(27.00038 -17.00007)" fill="#000000" fill-rule="evenodd" stroke="none"></path></g><g transform="translate(225 0)"><g><g><path d="M340.529 155.003C338.376 136.088 341.162 96.5517 341.348 94.1497C342.529 78.9648 335.414 19.0018 321.964 24.5268C299.401 6.66576 269.351 2.72176 241.251 0.837757C182.883 -3.07624 120.791 5.90876 75.7204 45.1888C53.4316 65.5878 31.7323 95.2567 33.4765 126.149C13.2256 155.431 -15.3236 195.598 9.90814 229.831C18.4849 240.768 32.1161 244.841 42.8905 253.124C64.5622 270.604 78.1586 295.69 100.036 313.066C157.996 365.149 256.413 376.029 313.359 316.789C357.394 273.885 350.274 209.699 342.529 155.003C337.321 118.23 344.728 191.904 340.529 155.003Z" transform="translate(65.0005 149)" fill="#FFFFFF" stroke="none"></path><path d="M227.86 0.104592C211.919 -0.485408 195.89 1.47459 180.28 4.62459C149.299 10.8646 117.57 21.0746 89.509 35.7146C77.727 41.8646 66.8569 49.4596 57.054 58.2086C48.193 53.9716 34.213 53.6276 31.373 63.3436C30.558 66.1326 30.964 68.6606 32.134 70.8226C31.793 71.0166 31.456 71.2246 31.126 71.4456C28.8908 72.9424 27.6975 74.0315 26.3137 75.4062L25.221 76.5016C21.761 79.9726 21.434 86.3956 25.221 89.8226L25.739 90.2906L26.0576 90.5686C26.7029 91.1105 27.3954 91.5689 28.118 91.9486C14.847 112.287 5.83895 135.465 2.10995 159.685C-0.0810489 173.905 -0.720049 188.125 0.929951 202.435C1.72995 209.425 2.92995 216.885 5.37895 223.495C6.56995 226.725 8.24895 229.865 9.75895 232.965C11.4 236.345 14.089 238.815 16.299 241.835C16.539 242.145 16.919 242.305 17.289 242.315C16.62 243.695 16.009 245.095 15.44 246.485C12.169 254.475 9.64995 263.085 8.18995 271.595C5.43995 287.645 7.11995 305.695 19.339 317.705C24.209 322.485 31.749 326.315 39.16 327.335C36.789 329.775 34.879 332.675 33.35 336.015C30.49 342.245 35.259 350.675 42.839 348.355C44.28 347.915 45.709 347.355 47.11 346.735C49.289 351.065 53.95 353.995 58.95 353.245C61.86 352.805 63.959 351.675 65.4 350.085C69.009 358.065 73.799 365.315 79.8699 371.715C86.2889 378.495 93.379 384.605 99.7799 391.405C105.999 398.005 109.69 406.625 117.02 412.065C119.299 413.755 122.79 411.955 123.43 409.455C125.915 399.726 119.222 391.626 112.872 384.935L112.07 384.095C105.259 377.015 97.39 371.105 90.14 364.505C82.61 357.645 76.549 350.365 71.089 341.765C70.6174 341.025 70.1472 340.27 69.6753 339.507L67.53 336.025C67.419 335.515 67.299 335.015 67.16 334.525C67.049 332.555 66.39 330.685 65.1199 328.965C63.549 326.835 61.45 325.225 59.11 324.475C58.32 323.635 57.499 322.835 56.64 322.095C57.709 320.925 58.65 319.545 59.45 317.945C60.93 314.965 59.2 310.225 55.24 310.615C54.0504 310.729 52.8818 310.675 51.7142 310.621C50.4369 310.562 49.1608 310.503 47.86 310.665C47.5484 310.704 47.237 310.745 46.9256 310.786C44.7888 311.069 42.6557 311.351 40.499 311.055C36.07 310.425 32.1 308.025 29.22 304.665C22.009 296.265 21.249 284.185 22.759 273.705C23.4263 269.026 24.5669 264.428 25.7788 259.855L27.6525 252.851C28.7204 248.937 30.007 244.881 32.52 241.695C40.4061 231.694 53.9178 239.542 62.0054 245.562L62.74 246.115C62.81 246.165 62.87 246.185 62.94 246.185C63.37 246.885 63.83 247.575 64.31 248.235C66.959 251.815 70.169 254.995 73.4799 257.995L74.1553 258.611C74.6084 259.02 75.066 259.425 75.52 259.825C79.39 263.235 84.629 260.725 85.14 255.845C86.089 246.645 85.83 237.345 86.419 228.105C87.0089 218.855 88.07 209.635 89.6499 200.505C91.2299 191.385 93.27 182.355 95.759 173.455C97.009 168.995 98.379 164.585 99.839 160.195C100.95 156.815 101.78 151.335 104.709 148.985C107.36 146.845 112.35 146.485 115.6 145.795C120.14 144.825 124.709 143.965 129.259 142.995C137.77 141.165 146.27 139.175 154.65 136.815C162.95 134.475 171.18 131.715 179.15 128.395C176.86 132.235 174.589 136.085 172.339 139.945C169.259 145.235 173.299 150.885 178.89 151.355C184.629 151.835 190.44 151.405 196.039 150.045C197.23 149.755 198.32 149.425 199.33 149.035C205.479 148.594 211.755 147.191 217.533 145.767L220.23 145.095C231.209 142.335 241.759 138.565 252.16 134.115C253.325 133.617 254.491 133.109 255.657 132.592C259.971 131.29 264.22 129.777 268.386 128.056C283.831 130.393 299.585 129.487 314.759 125.755C321.31 124.145 328.43 122.125 335.2 119.325C338.57 125.075 343.74 129.735 349.509 133.115C350.14 138.105 350.49 143.145 350.72 148.145C351.459 164.085 352.299 180.025 353.169 195.955L353.449 201.113C355.094 232.07 356.102 263.076 356.339 294.065C356.56 322.305 354.83 350.185 339.53 374.745C326.64 395.465 306.53 411.955 283.18 419.355C268.839 423.895 253.64 425.355 238.669 423.905C231.36 423.195 224.12 421.525 217.129 419.285L216.124 418.968C209.105 416.802 202.421 415.732 195.1 414.845C190.259 414.255 189.089 420.535 191.52 423.485C196.66 429.705 202.15 433.855 209.789 436.675C216.69 439.215 224.009 440.825 231.28 441.875C246.28 444.035 261.41 443.795 276.23 440.405C303.73 434.125 328.039 417.605 344.97 395.195C363.56 370.585 369.549 341.165 369.94 310.855C370.361 278.421 368.752 245.831 366.61 213.451L366.16 206.755C365.2 192.745 364.18 178.685 362.589 164.705C365.22 164.965 367.98 164.145 370.22 161.895C374.584 157.531 375.617 150.814 376.136 144.748L376.27 143.075C376.69 137.485 375.839 131.765 374.31 126.395C372.202 119.041 368.668 112.849 363.676 107.664C370.362 100.458 373.963 90.2596 374.757 80.6316C375.33 73.6936 375.863 64.5746 368.207 61.3416C366.695 60.7026 365.13 60.4666 363.556 60.4996C363.96 58.0286 364.233 55.5276 364.386 52.9966C364.631 48.9726 360.502 44.5616 356.369 44.9776C355.113 45.1046 353.857 45.2396 352.601 45.3706C353.352 44.1696 354.106 42.9716 354.88 41.7856C358.134 36.8086 353.736 31.2596 348.597 30.8346C334.938 29.7056 321.418 26.9046 308.386 22.6616C295.294 18.3976 281.618 14.1066 269.184 8.17159C268.306 7.75259 267.338 8.06259 266.736 8.66659C256.273 1.69209 241.083 0.631691 229.089 0.152327L227.86 0.104592ZM50.9901 264.032C46.347 261.873 40.0585 258.949 35.2303 260.525C33.0202 261.245 32.3693 263.585 33.3693 265.305L33.2892 265.305L33.4965 265.636C34.4149 267.034 35.5933 267.982 36.8854 268.882L37.4893 269.295C35.8693 270.445 34.6292 272.105 34.0892 274.225C33.2202 277.595 34.6292 281.735 37.8293 283.425C39.1103 284.095 40.4992 284.465 41.9492 284.535C43.9947 284.625 45.7013 283.683 47.2494 282.505L47.7093 282.145C48.3903 281.605 48.9403 280.885 49.3792 280.105C53.1103 284.925 56.2493 290.615 62.8392 290.795C65.9893 290.885 69.5493 288.375 70.1992 285.185C70.2702 284.875 70.3293 284.565 70.3903 284.265C70.9993 281.275 70.5602 277.775 68.1102 275.635C63.1903 271.355 58.1103 267.305 52.1403 264.565C51.7701 264.395 51.3861 264.216 50.9901 264.032Z" transform="translate(48.00005 65.00051)" fill="#000000" fill-rule="evenodd" stroke="none"></path></g></g><g transform="translate(159 186)"><g><path d="M140.63 0.473197L139.193 0.179116C137.503 -0.15929 135.804 -0.0161244 134.311 0.591153C132.847 1.18684 131.572 2.2242 130.68 3.72083C129.495 5.71373 129.337 7.38618 129.887 9.59525C130.311 11.3022 131.242 12.5864 132.46 13.5139C133.744 14.4911 135.37 15.0612 137.06 15.2595C144.854 16.175 152.53 17.8896 159.992 20.3235C163.488 21.4643 166.788 23.0096 170.058 24.6132L172.877 26.002C175.477 27.2735 178.163 28.499 181.557 29.3885C181.824 29.4584 182.087 29.5243 182.349 29.5865C183.29 29.2909 183.45 28.9329 183.649 28.6733L183.73 28.5721C183.972 28.2679 184.271 27.8025 183.988 25.6306C176.583 10.2711 156.267 3.74181 140.63 0.473197ZM43.5878 4.83023L45.4652 4.50163C51.273 3.49719 58.4944 2.53203 62.6028 7.20123C64.7819 9.67723 65.5318 14.2792 62.6028 16.6492C58.7671 19.7539 54.6298 19.6513 50.2182 19.5419C48.7043 19.5044 47.1582 19.466 45.5808 19.5562C40.4928 19.8482 35.6028 20.6902 30.7018 22.0912C19.9498 25.1642 11.1888 30.7742 2.00585 36.9342C0.800849 37.7422 -0.429151 36.2012 0.145849 35.0742C5.44685 24.6912 15.7198 16.1622 26.0098 10.9632C31.5019 8.18823 37.5118 5.88623 43.5878 4.83023ZM29.9632 50.1461C30.7976 39.7899 46.5702 37.4381 48.1392 47.6861C49.5442 56.8661 47.8902 65.2991 43.7552 73.5641C39.8042 81.4601 29.8737 77.7763 29.1227 70.5863C28.3809 63.4843 28.9069 59.2482 29.4428 54.933C29.6341 53.3921 29.8267 51.8412 29.9632 50.1461ZM159.205 41.8262C155.401 40.7152 152.226 42.6812 150.027 45.5612C149.773 45.8932 149.566 46.2222 149.38 46.5482C142.515 52.8562 145.101 65.6452 150.501 72.0492C153.814 75.9762 161.145 74.8452 163.413 70.3852C167.587 62.1722 171.09 45.2992 159.205 41.8262ZM128.748 119.039C136.872 107.66 125.366 96.9569 117.814 92.3669C115.836 90.9469 117.406 86.2431 121.634 86.9701C160.031 93.5671 140.136 159.708 91.112 123.413C85.2754 118.704 92.3434 108.334 98.6342 112.366C98.9532 112.611 99.2876 112.869 99.6364 113.139C106.704 118.603 119.636 128.601 128.748 119.039ZM93.5865 188.926C86.8642 186.184 80.8663 181.61 76.4812 175.766C74.9566 173.735 74.5614 171.589 74.8812 169.627C75.2408 167.421 76.546 165.422 78.326 164.08C80.1115 162.735 82.345 162.072 84.5043 162.41C86.3806 162.704 88.2484 163.731 89.7265 165.862L90.0354 166.288C92.6424 169.815 96.0396 172.708 99.9104 174.574C103.641 176.372 107.814 177.211 112.132 176.723C120.356 175.794 126.024 171.346 132.049 165.306C132.796 164.544 133.543 163.757 134.294 162.958C134.768 162.234 135.426 161.768 136.157 161.524C136.968 161.253 137.886 161.268 138.726 161.562C139.537 161.845 140.262 162.381 140.747 163.094C141.209 163.772 141.471 164.61 141.386 165.574C140.835 171.833 137.562 177.419 132.914 181.805C127.752 186.677 120.909 190.047 114.466 191.229C107.368 192.531 100.136 191.598 93.5865 188.926Z" transform="translate(53.00005 52.00027)" fill="#000000" fill-rule="evenodd" stroke="none"></path></g></g><g transform="translate(123 338)"><g><path d="M137.53 8.24075C128.479 4.00875 118.751 1.48975 108.757 0.596753C104.435 0.209753 95.9446 -1.01125 91.3476 1.80775C89.1976 3.12775 87.3806 4.97175 85.9396 7.22375C85.3776 6.44675 84.6376 5.78475 84.1696 4.94475C81.6526 0.422753 66.2046 0.328753 61.5406 0.712753C50.4806 1.62275 39.7156 4.21975 29.5776 8.58575C11.3766 16.4258 -3.91341 32.7148 0.894588 53.3948C1.57459 56.3238 4.85559 57.4628 7.55859 56.9568C25.7776 53.5418 43.9966 50.1258 62.2166 46.7108C66.4456 45.9188 70.6756 45.1258 74.9046 44.3328C78.7296 43.6158 83.4176 43.3888 87.0476 41.7388C88.5076 42.3628 90.1336 42.7588 91.8696 43.1028C113.791 47.4568 135.74 51.6808 157.675 55.9698C160.305 56.4848 163.755 55.1508 164.227 52.2368C167.375 32.7928 154.992 16.4048 137.53 8.24075" transform="translate(121.0002 28.99985)" fill="#000000" stroke="none"></path></g></g><g transform="translate(47 241)"><g><path d="M400.241 22.4717C406.555 19.4817 413.812 19.6607 420.603 20.5487C434.349 26.9267 404.861 34.3147 401.349 27.5287C404.801 52.9717 394.935 94.8897 366.724 108.133C334.13 124.07 298.773 99.8287 300.056 60.9787C293.067 59.2817 297.925 39.7137 300.739 31.7647C288.447 29.8527 276.738 28.7257 264.894 32.4797C271.42 50.8857 248.187 106.288 225.854 117.325C208.541 129.283 169.496 123.951 153.944 105.365C142.844 91.1707 137.3 58.2287 143.442 35.3387C143.388 35.3147 143.332 35.2967 143.279 35.2697C142.912 38.8697 118.056 38.4687 119.298 32.3037C83.5946 32.9447 49.0266 38.4207 13.6856 42.2807C9.41771 42.6777 9.20869 45.7037 9.00443 48.6607C8.82951 51.1931 8.65807 53.675 5.94363 54.4117C-4.52237 54.6617 0.226628 36.3637 9.44663 34.6657C18.2509 33.7459 27.1162 32.5506 36.011 31.3514C64.1217 27.5615 92.5269 23.7319 120.232 28.4287C124.112 23.4993 131.1 25.2524 136.795 26.6809C138.398 27.083 139.898 27.4593 141.198 27.6537C145.902 -0.109269 221.595 1.54173 246.677 12.8057C273.452 9.72473 301.309 7.96173 327.861 5.72573C344.673 0.333732 364.25 -2.44827 381.745 2.80973C384.166 2.67632 384.439 3.06209 384.978 3.82285C385.074 3.95736 385.177 4.10358 385.303 4.26073C392.194 7.30073 398.297 14.2087 400.241 22.4717ZM391.09 53.2827C381.556 117.772 315.002 124.904 303.177 60.8817C305.075 60.0507 306.44 58.4147 306.155 55.2387C306.088 41.2867 310.419 26.5407 323.005 18.7817C336.011 10.7757 351.232 9.98173 366.283 10.1837C395.005 9.49973 394.401 33.5067 391.09 53.2827ZM264.265 30.6657C272.34 25.1737 283.744 24.8557 292.758 25.2357C295.861 25.4177 300.059 25.2717 302.99 26.8347C306.149 20.6497 311.009 15.2997 316.233 11.7387C313.192 11.9693 310.141 12.2092 307.085 12.4496C288.207 13.9342 269.092 15.4374 250.449 14.8917C256.277 18.3047 262.045 24.6877 264.265 30.6657ZM253.026 60.1197C228.031 146.156 165.64 108.656 158.838 97.6297C146.569 79.3837 144.261 35.0297 154.948 23.1707C167.469 14.393 184.251 14.6491 199.84 14.8869C203.297 14.9396 206.695 14.9915 209.975 14.9437C243.176 15.3917 266.756 25.3237 253.026 60.1197Z" transform="translate(-1.999528 9.999668)" fill="#000000" fill-rule="evenodd" stroke="none"></path></g></g></g></g></svg>